<?xml version="1.0" standalone="no"?>
<!DOCTYPE svg PUBLIC "-//W3C//DTD SVG 20010904//EN"
 "http://www.w3.org/TR/2001/REC-SVG-20010904/DTD/svg10.dtd">
<svg version="1.0" xmlns="http://www.w3.org/2000/svg"
 width="692.000000pt" height="692.000000pt" viewBox="0 0 692.000000 692.000000"
 preserveAspectRatio="xMidYMid meet">
<metadata>
Created by potrace 1.14, written by Peter Selinger 2001-2017
</metadata>
<g transform="translate(0.000000,692.000000) scale(0.100000,-0.100000)"
fill="#000000" stroke="none">
<path d="M3406 6696 c18 -122 25 -239 24 -426 -1 -175 -2 -191 -25 -314 -19
-97 -35 -155 -50 -178 -7 -10 -43 -41 -81 -69 -38 -29 -99 -81 -135 -116 l-66
-64 -26 31 c-15 17 -36 52 -47 78 -21 47 -71 219 -67 231 1 3 -2 6 -8 6 -6 0
-10 -68 -9 -185 1 -191 4 -237 24 -353 9 -50 9 -71 1 -81 -15 -17 -68 -163
-81 -219 -20 -93 -26 -199 -16 -302 8 -82 13 -108 41 -184 38 -105 49 -131 57
-131 4 0 8 -7 8 -15 0 -17 114 -188 162 -241 104 -117 188 -193 323 -293 92
-69 176 -147 225 -211 19 -25 42 -53 50 -63 70 -83 172 -321 206 -481 36 -170
38 -474 5 -651 -5 -25 -5 -48 -1 -50 16 -10 91 255 105 370 4 28 10 75 14 105
11 90 4 307 -13 396 -9 48 -38 161 -45 179 -5 11 -21 52 -37 90 -78 196 -141
283 -390 535 -117 118 -225 231 -240 250 -16 19 -31 37 -35 40 -18 15 -86 122
-110 174 -63 136 -70 369 -15 527 28 80 59 136 116 208 61 77 76 80 128 23 23
-26 61 -76 84 -111 34 -52 43 -60 49 -45 8 24 4 227 -5 243 -18 28 107 29 169
2 11 -5 36 -16 56 -25 161 -70 282 -293 273 -502 -4 -83 -48 -187 -104 -244
-27 -27 -90 -73 -90 -65 0 4 -6 2 -14 -4 -22 -18 -161 -11 -226 11 -63 21
-120 57 -120 76 0 6 -4 12 -9 12 -5 0 -14 22 -21 49 -11 45 -9 108 6 189 4 17
2 32 -2 32 -15 0 -90 -122 -112 -181 -39 -105 -11 -225 72 -309 19 -19 32 -38
29 -42 -2 -5 2 -8 10 -8 8 0 22 -9 33 -21 10 -12 78 -60 149 -107 352 -234
492 -381 619 -652 51 -111 125 -340 150 -470 2 -14 10 -50 16 -80 22 -112 25
-128 35 -210 6 -48 24 -93 26 -65 0 6 3 39 6 75 14 133 7 448 -11 570 -2 14
-7 48 -11 75 -27 191 -120 436 -250 665 -20 36 -46 87 -56 113 -19 47 -33 143
-23 159 3 4 39 -15 79 -42 108 -73 288 -160 302 -146 3 2 -14 22 -38 43 -135
120 -232 244 -261 333 -17 52 -14 114 8 179 29 83 42 169 37 238 -4 67 -10
118 -13 118 -1 0 -7 20 -13 45 -11 42 -10 48 14 85 59 91 87 202 87 347 1 107
-11 133 -29 66 -26 -98 -94 -200 -140 -209 -21 -5 -57 19 -110 71 -27 27 -49
47 -49 44 0 -2 -24 12 -54 31 -30 19 -74 42 -98 51 -23 9 -47 21 -52 26 -6 4
-20 8 -31 8 -12 0 -25 3 -29 8 -4 4 -11 7 -14 8 -4 0 -22 4 -39 8 -27 6 -33
13 -34 34 -1 47 -15 190 -30 312 -18 146 -75 406 -100 452 -5 10 -7 22 -4 27
3 5 2 11 -2 13 -5 1 -21 32 -38 68 -30 66 -64 120 -75 120 -3 0 -1 -38 6 -84z"/>
<path d="M2747 5098 c-177 -375 -177 -689 0 -996 31 -53 68 -115 82 -136 14
-21 31 -46 36 -55 6 -9 35 -54 66 -101 71 -108 105 -163 129 -205 l19 -34 -52
-43 c-89 -75 -227 -215 -323 -330 -98 -116 -232 -414 -259 -574 -4 -21 -9 -50
-12 -64 -9 -49 -11 -386 -2 -445 29 -186 57 -294 60 -235 7 134 15 196 34 250
8 25 18 53 21 63 4 9 9 17 13 17 3 0 34 -46 68 -102 63 -106 168 -251 251
-348 66 -77 285 -296 355 -354 31 -26 57 -54 57 -61 0 -8 -10 -21 -22 -29 -12
-9 -19 -16 -14 -16 4 0 -12 -18 -36 -41 -73 -68 -175 -121 -320 -165 -32 -10
-56 -19 -54 -21 11 -11 194 -18 266 -9 124 14 231 44 307 87 18 10 37 19 42
19 9 0 49 -149 67 -248 4 -21 23 -143 29 -182 13 -96 19 -223 18 -402 0 -178
6 -232 21 -180 11 38 55 229 60 262 3 19 8 46 11 60 3 14 8 45 11 70 2 25 7
63 10 85 3 22 7 190 10 373 l4 332 37 32 c21 18 86 81 145 141 59 60 112 106
118 102 38 -23 56 -157 33 -238 -8 -27 -12 -51 -9 -54 15 -15 121 139 133 192
1 5 4 21 8 35 3 14 8 89 11 168 l6 143 38 57 c21 31 49 88 62 125 21 60 26 66
38 52 38 -45 99 -231 115 -347 6 -43 21 -67 22 -35 1 6 5 59 9 117 11 162 7
402 -10 510 -2 14 -8 52 -12 85 -4 33 -8 62 -9 65 0 3 -4 26 -8 51 -13 79 -18
103 -23 121 -3 9 -7 25 -9 35 -2 10 -13 65 -24 123 -12 58 -23 114 -25 125
-25 121 -88 337 -138 470 -97 257 -252 503 -421 668 -37 36 -67 50 -50 25 4
-7 36 -56 71 -107 62 -93 182 -326 182 -353 0 -8 4 -18 9 -23 24 -27 106 -331
127 -470 2 -16 8 -57 13 -90 10 -66 8 -492 -3 -540 -9 -42 -23 -114 -32 -160
-2 -16 -21 -77 -41 -135 -51 -152 -125 -295 -203 -394 -65 -84 -260 -251 -307
-262 -17 -5 -45 9 -110 52 -49 32 -92 62 -98 66 -5 5 -44 35 -86 67 -157 122
-291 277 -364 421 -45 91 -86 211 -99 295 -2 17 -7 49 -11 73 -11 68 -8 231 5
302 18 101 105 239 209 332 87 79 192 115 267 92 119 -36 183 -107 250 -281
13 -35 21 -63 19 -63 -3 0 -1 -9 5 -20 23 -43 33 -232 15 -300 -30 -114 -108
-209 -193 -233 -210 -62 -375 132 -374 439 0 57 3 108 7 113 3 6 2 11 -3 11
-17 0 -66 -154 -79 -247 -37 -283 55 -482 296 -638 38 -25 73 -45 78 -45 17
-1 52 -38 73 -79 37 -73 107 -131 188 -156 27 -8 28 4 2 38 -25 31 -48 85 -65
150 -12 46 -11 48 14 68 144 111 241 278 275 474 23 127 34 404 21 495 -10 71
-44 210 -55 225 -4 6 -17 37 -30 70 -33 85 -84 177 -148 270 -31 44 -58 82
-61 85 -4 3 -26 30 -51 60 -25 30 -53 62 -62 71 -10 9 -18 19 -18 23 0 3 -48
52 -107 108 -58 57 -138 135 -176 173 -232 234 -331 473 -330 800 0 89 9 204
19 229 12 30 -14 16 -29 -16z"/>
</g>
</svg>
